Coordinates
version=1
nRows=13
nColumns=38
inDegrees=no

Units are S.I. units (second, meters, Newtons, ...)
If the header above contains a line with 'inDegrees', this indicates whether rotational values are in degrees (yes) or radians (no).

endheader
time	pelvis_tilt	pelvis_list	pelvis_rotation	pelvis_tx	pelvis_ty	pelvis_tz	hip_flexion_r	hip_adduction_r	hip_rotation_r	knee_angle_r	ankle_angle_r	subtalar_angle_r	mtp_angle_r	hip_flexion_l	hip_adduction_l	hip_rotation_l	knee_angle_l	ankle_angle_l	subtalar_angle_l	mtp_angle_l	lumbar_extension	lumbar_bending	lumbar_rotation	arm_flex_r	arm_add_r	arm_rot_r	elbow_flex_r	pro_sup_r	wrist_flex_r	wrist_dev_r	arm_flex_l	arm_add_l	arm_rot_l	elbow_flex_l	pro_sup_l	wrist_flex_l	wrist_dev_l
0.19	-0.161979	0.0446046	-0.0026795	0.803767	1.00027	-0.340722	0.590939	-0.0398612	-0.214419	-0.197693	-0.150299	0.010744	0.00797773	-0.0512663	-0.034018	-0.265484	-1.26265	-0.185389	0.0208734	0.012112	0.0320164	0.0333952	-0.176804	-0.709701	-0.34989	-0.109419	1.4433	1.27029	0.0451735	-0.0432545	-0.0874142	-0.61527	0.445016	2.11096	1.43163	-0.00973252	0.0262223
0.2	-0.149151	0.0365008	-0.0112268	0.803164	0.994248	-0.338689	0.606996	-0.0234701	-0.164153	-0.314435	-0.0805243	0.010744	0.00797773	-0.0352201	-0.0628857	-0.263432	-1.38671	-0.160629	0.0208734	0.012112	0.0146239	0.0461177	-0.163591	-0.67815	-0.358182	-0.0979134	1.43808	1.28001	0.0451735	-0.0432545	-0.112566	-0.6074	0.435814	2.06171	1.45691	-0.00973252	0.0262223
0.21	-0.138718	0.0288163	-0.0182647	0.801995	0.987433	-0.337178	0.61962	-0.00829956	-0.123049	-0.424452	-0.00679673	0.010744	0.00797773	-0.0092868	-0.0859941	-0.255736	-1.5057	-0.136973	0.0208734	0.012112	-0.0016555	0.0584196	-0.150927	-0.642617	-0.365561	-0.0842745	1.43416	1.29026	0.0451735	-0.0432545	-0.1369	-0.599818	0.427496	2.01065	1.47919	-0.00973252	0.0262223
0.22	-0.130704	0.0216015	-0.0238072	0.800214	0.980087	-0.336182	0.628779	0.00555922	-0.0910182	-0.527514	0.0704377	0.010744	0.00797773	0.02652	-0.103309	-0.242515	-1.61941	-0.114427	0.0208734	0.012112	-0.0167512	0.0702222	-0.138813	-0.603148	-0.371977	-0.0685499	1.43152	1.30097	0.0451735	-0.0432545	-0.160477	-0.592532	0.420074	1.95789	1.49825	-0.00973252	0.0262223
0.23	-0.125168	0.0149801	-0.0278849	0.797794	0.972593	-0.335622	0.634288	0.0178956	-0.0676749	-0.622818	0.149866	0.010744	0.00797773	0.0720992	-0.11479	-0.22417	-1.72725	-0.0929781	0.0208734	0.012112	-0.0304633	0.081362	-0.127234	-0.559928	-0.377294	-0.0509124	1.43014	1.31185	0.0451735	-0.0432545	-0.183497	-0.585554	0.413581	1.90381	1.51352	-0.00973252	0.0262223
0.24	-0.122179	0.00912397	-0.0305772	0.794798	0.965355	-0.335416	0.635743	0.0284388	-0.0521662	-0.708903	0.229267	0.010744	0.00797773	0.127148	-0.120491	-0.20151	-1.82811	-0.0725492	0.0208734	0.012112	-0.0424181	0.0915908	-0.116139	-0.513411	-0.381284	-0.0317511	1.43006	1.3225	0.0451735	-0.0432545	-0.206348	-0.578917	0.408061	1.84913	1.52408	-0.00973252	0.0262223
0.25	-0.121816	0.00421205	-0.0320295	0.791343	0.958725	-0.335468	0.632552	0.0369136	-0.0431889	-0.783868	0.305836	0.010744	0.00797773	0.191052	-0.120654	-0.175769	-1.92039	-0.0529821	0.0208734	0.012112	-0.0520845	0.1006	-0.105404	-0.464431	-0.38365	-0.0117489	1.43149	1.33249	0.0451735	-0.0432545	-0.229604	-0.572697	0.403547	1.79507	1.52903	-0.00973252	0.0262223
0.26	-0.124154	0.000376006	-0.0324611	0.787565	0.952973	-0.335681	0.624054	0.0430912	-0.0391838	-0.84576	0.376628	0.010744	0.00797773	0.262817	-0.115787	-0.148529	-2.00215	-0.0340873	0.0208734	0.012112	-0.0588519	0.108061	-0.0948134	-0.414244	-0.384078	0.00809535	1.4349	1.3415	0.0451735	-0.0432545	-0.253932	-0.567052	0.400048	1.74325	1.52782	-0.00973252	0.0262223
0.27	-0.129272	-0.00231	-0.0321386	0.783629	0.948269	-0.335976	0.609642	0.0468398	-0.0385877	-0.892959	0.438862	0.010744	0.00797773	0.341035	-0.106686	-0.121541	-2.0714	-0.0157371	0.0208734	0.012112	-0.062164	0.113693	-0.0840463	-0.364473	-0.382306	0.0265301	1.44102	1.34949	0.0451735	-0.0432545	-0.279984	-0.562233	0.397525	1.69558	1.52056	-0.00973252	0.0262223
0.28	-0.137094	-0.00378124	-0.0313481	0.779751	0.944745	-0.336317	0.588906	0.0481711	-0.0400304	-0.924441	0.490034	0.010744	0.00797773	0.423925	-0.0944117	-0.0965142	-2.1263	0.00205486	0.0208734	0.012112	-0.0616105	0.117343	-0.0727057	-0.316935	-0.378197	0.0422072	1.45076	1.35667	0.0451735	-0.0432545	-0.308282	-0.558556	0.395882	1.65402	1.50809	-0.00973252	0.0262223
0.29	-0.147315	-0.00404226	-0.0303786	0.776174	0.94252	-0.33669	0.561669	0.0472282	-0.042421	-0.939899	0.527906	0.010744	0.00797773	0.509364	-0.0801813	-0.0749309	-2.1654	0.019112	0.0208734	0.012112	-0.0570514	0.118978	-0.0603833	-0.273412	-0.371791	0.0539031	1.46501	1.3635	0.0451735	-0.0432545	-0.339164	-0.556335	0.394931	1.62037	1.49181	-0.00973252	0.0262223
0.3	-0.159424	-0.00316473	-0.0294872	0.773115	0.941696	-0.337086	0.528007	0.0442444	-0.0449841	-0.939743	0.550502	0.010744	0.00797773	0.594982	-0.0652261	-0.0579079	-2.18775	0.0351403	0.0208734	0.012112	-0.0486726	0.118657	-0.0467453	-0.23541	-0.363325	0.0607589	1.48441	1.37057	0.0451735	-0.0432545	-0.372785	-0.555795	0.39438	1.59592	1.47334	-0.00973252	0.0262223
0.31	-0.172785	-0.00126497	-0.0288805	0.770748	0.942324	-0.337485	0.488264	0.039494	-0.0472653	-0.925043	0.556186	0.010744	0.00797773	0.678313	-0.0506596	-0.0461254	-2.19297	0.0498122	0.0208734	0.012112	-0.0369729	0.116492	-0.0316115	-0.203963	-0.353212	0.0624748	1.5092	1.37858	0.0451735	-0.0432545	-0.409168	-0.556994	0.393791	1.58134	1.45415	-0.00973252	0.0262223
